<?xml version="1.0" encoding="iso-8859-1"?>
<!-- Generator: Adobe Illustrator 18.1.1, SVG Export Plug-In . SVG Version: 6.00 Build 0)  -->
<svg version="1.1" id="Capa_1" xmlns="http://www.w3.org/2000/svg" xmlns:xlink="http://www.w3.org/1999/xlink" x="0px" y="0px"
	 viewBox="0 0 20 20" style="enable-background:new 0 0 20 20;" xml:space="preserve">
<g>
	<path style="fill:#030104;" d="M17,4h-1.586l-1-1C13.835,2.421,12.819,2,12,2H8C7.181,2,6.165,2.421,5.586,3l-1,1H3
		C1.346,4,0,5.346,0,7v8c0,1.654,1.346,3,3,3h14c1.654,0,3-1.346,3-3V7C20,5.346,18.654,4,17,4z M10,14c-1.933,0-3.5-1.568-3.5-3.5
		C6.5,8.566,8.067,7,10,7s3.5,1.566,3.5,3.5C13.5,12.432,11.933,14,10,14z M16,9.299c-0.719,0-1.3-0.58-1.3-1.299
		s0.581-1.301,1.3-1.301S17.3,7.281,17.3,8S16.719,9.299,16,9.299z"/>
</g>
<g>
</g>
<g>
</g>
<g>
</g>
<g>
</g>
<g>
</g>
<g>
</g>
<g>
</g>
<g>
</g>
<g>
</g>
<g>
</g>
<g>
</g>
<g>
</g>
<g>
</g>
<g>
</g>
<g>
</g>
</svg>
