<?xml version="1.0" encoding="iso-8859-1"?>
<svg version="1.1" id="Capa_1" xmlns="http://www.w3.org/2000/svg" xmlns:xlink="http://www.w3.org/1999/xlink" x="0px" y="0px"
	 viewBox="0 0 492 492" style="enable-background:new 0 0 492 492;" xml:space="preserve">
<g>
	<path style="fill:#010002;" d="M492,420.5c-10.667,0-20.667-2.333-30-7c-10.668-4.667-21.334-7-32-7c-10.667,0-21,2.333-31,7
		c-9.333,4.667-19.333,7-30,7s-20.667-2.333-30-7c-10.668-4.667-21.335-7-32-7c-10.667,0-21,2.333-31,7c-9.333,4.667-19.333,7-30,7
		s-20.667-2.333-30-7c-10-4.667-20.333-7-31-7s-21.333,2.333-32,7c-9.333,4.667-19.333,7-30,7s-20.667-2.333-30-7
		c-10-4.667-20.333-7-31-7s-21,2.333-31,7s-20.333,7-31,7v-45c10.667,0,21-2.333,31-7s20.333-7,31-7s21,2.333,31,7s20.167,7,30.5,7
		s20.167-2.333,29.5-7c10-4.667,20.5-7,31.5-7s21.5,2.333,31.5,7s20.167,7,30.5,7c10.334,0,20.167-2.333,29.5-7
		c10-4.667,20.667-7,32-7c10,0,20.333,2.333,31,7c9.335,4.667,19.168,7,29.5,7c10.333,0,20.5-2.333,30.5-7s20.5-7,31.5-7
		s21.5,2.333,31.5,7c9.333,4.667,19.333,7,30,7V420.5z"/>
	<path style="fill:#010002;" d="M421,292.5c16,0,29.667-5.667,41-17s17-25,17-41s-5.667-29.667-17-41s-25.167-17-41.5-17
		s-30.167,5.667-41.5,17s-17,25-17,41c0,16.667,5.5,30.5,16.5,41.5S403.667,292.5,421,292.5z"/>
	<path style="fill:#010002;" d="M80,325.5c4,0.667,8.333,2,13,4c10,4.667,20.167,7,30.5,7s20.167-2.333,29.5-7
		c10.667-4.667,21.167-7,31.5-7s20.833,2.333,31.5,7c10,4.667,20.167,7,30.5,7c10.334,0,20.167-2.333,29.5-7
		c10.667-4.667,21.167-7,31.5-7s20.833,2.333,31.5,7c9.333,4.667,19.333,7,30,7c7.336,0,14.67-1.333,22-4l-97-174l113-21
		c8.667-1.333,15.667-5,21-11s8-13.333,8-22s-3.333-16.333-10-23c-6.668-6.667-14.335-10-23-10c-2,0-3.333,0.333-4,1l-175,31
		c-7.333,2-13.5,7.167-18.5,15.5s-5.5,17.5-1.5,27.5l1,1.5l1,1.5l46,82L80,325.5z"/>
</g>
</svg>
