<?xml version="1.0" encoding="UTF-8" standalone="no"?>
<svg viewBox="0 0 576 512" version="1.1" xmlns="http://www.w3.org/2000/svg">
<path
 d="m 144.5112,75.874469 c -7.00643,-16.254226 -20.43161,-26.315782 -38.13161,-26.315782 -17.700002,0 -15.583612,33.240922 -8.280652,49.364097 L 122.80812,153.47469 C 145.12959,202.75513 149.44094,200.2 188.14094,234.5 l -21,146.7 c 7.8,2.1 15.5,3.3 22.8,3.3 21.1,0 42,-8.5 59.2,-20.3 22.1,-15.5 51.6,-15.5 73.7,0 12.4,8.5 26.1,14.8 39.7,18 l 17.7,-97.6 c 9.9645,-2.70188 53.78413,-21.70404 65.96799,-25.73077 38.18849,-12.08581 43.16545,-9.07161 62.48736,-27.8773 17.8866,-33.57067 91.37323,-118.74031 28.17762,-117.72261 -17.63433,0.28398 -50.46063,77.95701 -67.66063,81.85701 L 397.94094,216.6 c -41,9.3 -83.7,7.5 -123.7,-5.2 -50.2,-16 -86.46889,-35.16462 -107.32984,-83.55997 z M 317.94094,192 c 35.3,0 64,-28.7 64,-64 0,-35.3 -28.7,-64 -64,-64 -35.3,0 -64,28.7 -64,64 0,35.3 28.7,64 64,64 z m -13.5,197.9 c -9.65259,-3.44304 -25.69967,-5.79549 -37,0 -22.5,15.5 -50,26.1 -77.5,26.1 -26.9,0 -55.3,-10.8 -77.4,-26.1 v 0 c -12.686647,-5.11095 -28.099997,-3.09678 -39.199997,1.7 -14.4,11.9 -32.5,21 -50.6,25.2 -17.2000002,4 -20.1213809,21.2 -16.1213809,38.4 3.9999999,17.2 13.4213809,27.9 30.6213809,23.9 24.5,-5.7 44.9,-20.32046 58.2,-28.82046 C 124.44094,465.87954 156.94094,480 189.94094,480 c 31.9,0 60.6,-9.9 80.4,-18.9 5.8,-2.7 16.32099,-11.84657 16.32099,-11.84657 4.5,2.4 8.97901,9.24657 14.87901,11.84657 19.8,9 48.6,18.9 80.4,18.9 33,0 66.38299,-13.76962 95.38299,-29.26962 13.4,8.4 32.81701,22.76962 57.31701,28.46962 17.2,4 33.1546,-8.68527 34.19397,-22.94074 C 570.11902,438.64701 566.34094,420.9 549.14094,416.9 c -18.1,-4.2 -36.2,-13.3 -50.6,-25.2 -11.1,-6.15093 -27.3,-5.43054 -39.2,-1.7 v 0 c -21.21274,20.66266 -50.5,26 -77.4,26 -27.5,0 -55,-10.6 -77.5,-26.1 z"
/>
</svg>
