<?xml version="1.0" encoding="iso-8859-1"?>
<!-- Generator: Adobe Illustrator 18.1.1, SVG Export Plug-In . SVG Version: 6.00 Build 0)  -->
<svg version="1.1" id="Capa_1" xmlns="http://www.w3.org/2000/svg" xmlns:xlink="http://www.w3.org/1999/xlink" x="0px" y="0px"
	 viewBox="0 0 12 12" style="enable-background:new 0 0 12 12;" xml:space="preserve">
<g>
	<path style="fill:#030104;" d="M11.414,0.586c-0.78-0.781-2.048-0.781-2.828,0L6,3.172L3.414,0.586
		c-0.78-0.781-2.048-0.781-2.828,0c-0.781,0.781-0.781,2.047,0,2.828L3.171,6L0.586,8.586c-0.781,0.781-0.781,2.047,0,2.828
		C0.976,11.805,1.488,12,2,12s1.024-0.195,1.414-0.586L6,8.828l2.586,2.586C8.976,11.805,9.488,12,10,12
		c0.512,0,1.024-0.195,1.414-0.586c0.781-0.781,0.781-2.047,0-2.828L8.829,6l2.585-2.586C12.195,2.633,12.195,1.367,11.414,0.586z"
		/>
</g>
</svg>
