<?xml version="1.0" encoding="UTF-8" standalone="no"?>
<svg
   width="150"
   height="150"
   viewBox="0 0 150 150"
   version="1.1"
   xmlns:xlink="http://www.w3.org/1999/xlink"
   xmlns="http://www.w3.org/2000/svg"
   xmlns:svg="http://www.w3.org/2000/svg">
  <defs>
    <linearGradient
       id="linearGradient">
      <stop
         style="stop-color:#ff0000;stop-opacity:1;"
         offset="0"
         />
      <stop
         style="stop-color:#ff0000;stop-opacity:0;"
         offset="1"
         />
    </linearGradient>
    <radialGradient
       xlink:href="#linearGradient"
       id="radialGradient"
       cx="116"
       cy="133"
       fx="116"
       fy="133"
       r="77"
       gradientTransform="matrix(3.7795276,0,0,3.7075423,-56.168315,76.052372)"
       gradientUnits="userSpaceOnUse" />
  </defs>
  <g
     transform="translate(-24.561291,-75.931283)">
    <path
       style="fill:url(#radialGradient);fill-opacity:1;fill-rule:evenodd;stroke:none;stroke-width:0.999999"
       d="M 382.4043,286.98438 A 289.57363,284.05838 0 0 0 92.830078,571.04297 289.57363,284.05838 0 0 0 382.4043,855.10156 289.57363,284.05838 0 0 0 671.97656,571.04297 289.57363,284.05838 0 0 0 382.4043,286.98438 Z m 0.54297,168.59179 A 111.8001,112.19328 0 0 1 494.74805,567.76953 111.8001,112.19328 0 0 1 382.94727,679.96289 111.8001,112.19328 0 0 1 271.14844,567.76953 111.8001,112.19328 0 0 1 382.94727,455.57617 Z"
       transform="scale(0.26458333)" />
  </g>
</svg>
