<?xml version="1.0" encoding="iso-8859-1"?>
<!-- Generator: Adobe Illustrator 18.1.1, SVG Export Plug-In . SVG Version: 6.00 Build 0)  -->
<svg version="1.1" id="Capa_1" xmlns="http://www.w3.org/2000/svg" xmlns:xlink="http://www.w3.org/1999/xlink" x="0px" y="0px"
	 viewBox="0 0 18 18" style="enable-background:new 0 0 18 18;" xml:space="preserve">
<g>
	<path style="fill:#030104;" d="M17.954,5.5L15.2,2.893C14.632,2.352,13.753,2,12.963,2h-2.917V1.5c0-0.828-0.672-1.5-1.5-1.5
		s-1.5,0.672-1.5,1.5V2h-3.5c-1.93,0-3.5,1.57-3.5,3.5c0,1.396,0.828,2.596,2.016,3.157L0.218,10.5l2.561,2.561
		C3.349,13.631,4.239,14,5.047,14h2.2l0.8,4h1l0.8-4h2.7c1.931,0,3.5-1.57,3.5-3.5c0-0.902-0.353-1.718-0.915-2.339
		c0.021-0.021,0.051-0.035,0.072-0.056L17.954,5.5z M12.546,12h-7.5c-0.275,0-0.658-0.158-0.854-0.354L3.046,10.5l1.146-1.146
		C4.387,9.159,4.769,9,5.046,9h7.5c0.828,0,1.5,0.672,1.5,1.5S13.374,12,12.546,12z M13.825,6.656C13.626,6.846,13.239,7,12.963,7
		H3.546c-0.828,0-1.5-0.672-1.5-1.5S2.718,4,3.546,4h9.417c0.276,0,0.663,0.154,0.862,0.344L15.046,5.5L13.825,6.656z"/>
</g>
<g>
</g>
<g>
</g>
<g>
</g>
<g>
</g>
<g>
</g>
<g>
</g>
<g>
</g>
<g>
</g>
<g>
</g>
<g>
</g>
<g>
</g>
<g>
</g>
<g>
</g>
<g>
</g>
<g>
</g>
</svg>
